<?xml version="1.0" encoding="UTF-8" standalone="no"?>
<!-- Created with Inkscape (http://www.inkscape.org/) -->

<svg
   version="1.1"
   id="svg1"
   width="384"
   height="307"
   viewBox="0 0 384 307"
   sodipodi:docname="hull.svg"
   inkscape:version="1.3 (0e150ed6c4, 2023-07-21)"
   xmlns:inkscape="http://www.inkscape.org/namespaces/inkscape"
   xmlns:sodipodi="http://sodipodi.sourceforge.net/DTD/sodipodi-0.dtd"
   xmlns="http://www.w3.org/2000/svg"
   xmlns:svg="http://www.w3.org/2000/svg">
  <defs
     id="defs1" />
  <sodipodi:namedview
     id="namedview1"
     pagecolor="#ffffff"
     bordercolor="#000000"
     borderopacity="0.25"
     inkscape:showpageshadow="2"
     inkscape:pageopacity="0.0"
     inkscape:pagecheckerboard="0"
     inkscape:deskcolor="#d1d1d1"
     showgrid="false"
     inkscape:zoom="2.3447384"
     inkscape:cx="117.71036"
     inkscape:cy="40.303004"
     inkscape:window-width="1366"
     inkscape:window-height="705"
     inkscape:window-x="-8"
     inkscape:window-y="-8"
     inkscape:window-maximized="1"
     inkscape:current-layer="g1" />
  <g
     inkscape:groupmode="layer"
     inkscape:label="Image"
     id="g1">
    <path
       style="display:inline;fill:#000000"
       d="m -0.00735433,64.847064 2.11100193,3.92044 28.6493124,28.34774 164.95973,-0.30158 31.9666,-16.58644 6.33301,-7.84086 -0.90472,-27.7446 -52.1719,0.90471 -1.80943,-6.93615 -34.68075,-1.80943 -13.26915,3.61886 -6.63458,-9.34872 0.30157,-11.76129 -4.52358,-4.22201 -13.87229,-10.8565808 -52.473487,-2.41257 -4.22201,3.01571 L 9.3413686,0.00915324 1.5005037,19.912884 l 6.6345779,0.60314 -3.015717,10.25344 4.372789,1.35707 -0.150785,3.16651 h -4.37279 l -0.778408,22.50221 z"
       id="hull_path"
       sodipodi:nodetypes="cccccccccccccccccccccccccc" />
    <path
       style="fill:#222b00"
       d="M 0.42648681,66.105456 31.133537,96.812506 195.33096,97.238993 233.71477,71.223297 233.28829,44.781115 179.55095,38.8103 143.29957,37.104352 4.6913549,35.824892 Z"
       id="path_8"
       inkscape:label="path" />
  </g>
</svg>
